PathFileType	4	(X/Y/Z)	Patient4_TMGait_0pt5_01_right_30.trc.trc
DataRate	CameraRate	NumFrames	NumMarkers	Units	OrigDataRate	OrigDataStartFrame	OrigNumFrames
76.502732240437	76.502732240437	6	33	mm	76.502732240437	53	       141
Frame#	Time	L.ASIS			Sacral			L.Shoulder			Chest			R.Shoulder			Neck			R.ASIS			R.Thigh.Superior			R.Thigh.Lateral			R.Thigh.Inferior			R.Patella			L.Thigh.Superior			L.Thigh.Lateral			L.Thigh.Inferior			L.Patella			L.Shank.Superior			L.Shank.Lateral			L.Shank.Inferior			R.Shank.Superior			R.Shank.Lateral			R.Shank.Inferior			R.Heel			R.Midfoot.Superior			R.Midfoot.Lateral			R.Toe			L.Heel			L.Midfoot.Lateral			L.Midfoot.Superior			L.Toe			L.Elbow			L.Wrist			R.Elbow			R.Wrist			
		X1	Y1	Z1	X2	Y2	Z2	X3	Y3	Z3	X4	Y4	Z4	X5	Y5	Z5	X6	Y6	Z6	X7	Y7	Z7	X8	Y8	Z8	X9	Y9	Z9	X10	Y10	Z10	X11	Y11	Z11	X12	Y12	Z12	X13	Y13	Z13	X14	Y14	Z14	X15	Y15	Z15	X16	Y16	Z16	X17	Y17	Z17	X18	Y18	Z18	X19	Y19	Z19	X20	Y20	Z20	X21	Y21	Z21	X22	Y22	Z22	X23	Y23	Z23	X24	Y24	Z24	X25	Y25	Z25	X26	Y26	Z26	X27	Y27	Z27	X28	Y28	Z28	X29	Y29	Z29	X30	Y30	Z30	X31	Y31	Z31	X32	Y32	Z32	X33	Y33	Z33	

53	40.119714285714	859.133171900337	963.478613622120	373.487590534920	658.423392119722	1009.822163993764	545.113501649125	829.678147852410	1434.775903290013	352.181618787421	943.528039353576	1360.393273731391	503.866562176458	876.409852126295	1437.375455150623	684.754021263740	847.771950830414	1495.125771198594	501.488398379754	891.456267436816	939.225360939622	645.620816661753	924.360507324803	736.949354309686	609.146168900295	841.700284004837	630.899257973447	669.800938324953	910.427432885733	577.166028460047	584.279383160320	906.103204526332	486.721276975747	588.273237312870	947.957900364987	786.661078501877	407.365334340827	909.570546846193	659.814108850051	330.326700093119	1010.941374959454	601.430664986068	397.913582129423	1034.303540677080	520.297068885454	390.922741656239	990.993791262350	446.402094939278	377.958591622874	879.231213269825	355.448221897503	323.734292988910	918.025053686480	229.261528908275	375.687888756131	872.030908775060	399.096676437684	594.678542825791	795.236277656329	299.242853929533	654.436563845595	829.872728587829	203.499653581848	589.129816259924	684.655558286697	43.690986640664	557.552235344135	856.146798457973	97.322073207069	596.405976421463	766.764131870318	36.915838538145	633.937144843026	975.399620119086	41.630339833053	626.439984463074	769.247618091735	92.685864677068	409.025548473060	838.025307870183	80.149176662557	326.097604714170	931.789052379860	125.591577016662	348.598000305903	1045.421372923410	55.446809073949	312.844100163537	726.255099186770	1090.990750589631	252.298435183114	750.457845312434	831.299650483626	247.632131257558	894.047887361316	1098.538310572286	814.249356827492	1135.448432392488	1028.250202757123	772.638514047996	
54	40.132785714286	857.722313989527	963.747565757731	373.298410975365	657.779909897598	1010.179042052041	546.350275209574	828.212306063713	1434.724700601186	352.410399035155	943.168461536346	1360.284876287890	503.222580709544	877.484524054865	1437.423650405223	684.648353745577	847.432508178560	1495.110160355651	501.592256114300	890.980765213501	938.902303100003	645.339522573443	921.911583657612	736.071120547786	608.739124002872	838.677184500666	630.695988051931	670.051877774034	906.335120725927	576.409664436693	584.244731694210	901.164231153002	486.175331765599	588.262947240101	946.144079134726	787.002067250774	407.729560981042	908.178829113803	660.195725636502	330.314508571824	1008.694721065858	601.884380350705	398.973188818685	1033.569702692892	522.903037663680	392.018370201408	994.352121438006	448.611214539721	378.696620828874	889.746112182357	350.783502184757	322.434266130289	935.364915412273	227.109576501373	375.695761421476	866.855258932545	398.584865182627	594.671707389994	789.849061497939	299.023017472173	654.557695689926	823.854130092331	203.189085504763	589.102905634012	678.085413764429	43.666151112420	557.603168618614	849.528924105897	97.210656647025	596.299249406523	760.181570877486	36.892987956467	633.963047675710	968.814436560213	41.568665623829	626.444307068639	795.012225545372	81.049928166284	406.601456726137	866.346813095347	72.714047062402	325.242263304188	956.426692934877	124.314141195588	349.364233737538	1075.209673528459	61.582661494388	316.576374936567	720.794293107887	1091.812413029904	254.511946473675	737.138852738059	831.618694693711	251.324976872267	902.062823523248	1098.933353386852	813.165436169647	1145.457349516029	1040.560076202864	767.808106173113	
55	40.145857142857	856.424976448858	963.912512754714	372.972848491268	657.178731282167	1010.535880778816	547.360199488121	826.800914649299	1434.709270585799	352.543882260470	942.819927151888	1360.192626765064	502.483555513760	878.535409848554	1437.446969052841	684.432004344499	847.087585466792	1495.090396124161	501.622137379875	890.541388917057	938.589441110844	644.952480100058	919.479621637884	735.177551907984	608.408824813911	835.563454964248	630.489582172214	670.248825169008	902.230848520578	575.632751442197	584.237723399216	896.186979277963	485.649970127129	588.241984446724	944.103283908316	786.956024766786	407.989401477752	906.498391201299	660.364321530559	330.028607145205	1006.014658007451	601.910140895727	399.787798727789	1032.256797165325	525.143466157253	392.926671729958	997.064984988541	450.705219496043	379.353617314436	899.897758027372	346.561497960365	321.096386457734	951.822657458725	225.841088702861	375.920685134641	861.665658137409	398.126480648591	594.664554240594	784.445365392980	298.846402976373	654.675895491629	817.831933134667	202.914551069123	589.086341350312	671.520993052364	43.670028973458	557.675401176944	842.920765804172	97.096116291191	596.186793626317	753.607515706492	36.878507326371	633.988034355153	962.234361459488	41.485903791820	626.446574235261	820.101533821331	71.256394765393	404.400854694143	893.868756455728	66.861836949100	324.787855541843	979.938966207170	124.203582917605	350.564392275834	1103.254950792188	68.788931172279	321.154820404703	715.415396186757	1092.754105856870	256.621091720113	724.562231330497	832.309931500972	255.083793811185	910.382480766670	1099.420095131180	811.739932456995	1155.126423915943	1052.705820011541	762.772150365591	
56	40.158928571429	855.233038054798	963.987877284446	372.530791788582	656.623136293975	1010.898075583860	548.144398567596	825.472760698965	1434.724788571481	352.570363447929	942.494885120727	1360.117509030340	501.652653856245	879.566794527604	1437.462454961911	684.091486093195	846.758012791739	1495.069956636305	501.557695496508	890.148160664938	938.296647531634	644.475169893952	917.054235133258	734.277193963916	608.138395644976	832.350154987670	630.284992499820	670.385903124219	898.098346472342	574.839738974388	584.244072466667	891.158157444421	485.147730139034	588.201750183402	941.902031777416	786.597070157771	408.139398131282	904.616925360490	660.374177938840	329.492145009591	1003.061482510764	601.595470888423	400.305155977287	1030.487549107466	527.034437547762	393.591836951125	999.177222547747	452.681061101730	379.852472676191	909.448044442568	342.861859873455	319.840488760051	967.167789003278	225.414745041463	376.321708028724	856.447033023317	397.727975608453	594.655243458138	779.002713671602	298.717646929979	654.783511142676	811.796650751648	202.682730971321	589.080209978137	664.958289078430	43.700084861015	557.765417622123	836.321615556465	96.988079412022	596.079410879182	747.039055891125	36.872890733017	634.013440572696	955.656199224513	41.391924701925	626.448107432193	844.110216529094	63.313836827186	402.655584802747	920.035179311413	62.565914616889	324.787331789104	1001.935758226735	125.168854233375	352.062423791027	1129.112187516188	76.855322608463	326.111860277816	710.149874562037	1093.814349636397	258.591948429418	712.774238844433	833.315215262852	258.827528796196	918.896316149499	1100.043129648804	809.979945815362	1164.394696527716	1064.609065834208	757.587555862115	
57	40.172000000000	854.142682940659	963.983327794315	371.988162945697	656.118266520466	1011.260686410128	548.707241705994	824.248033898514	1434.760393808716	352.480127897121	942.201758569104	1360.053649693040	500.732534720150	880.580501557030	1437.476211857753	683.615947834201	846.458077287825	1495.045219092908	501.382878372969	889.810589643528	938.027049439373	643.916456954552	914.627401157205	733.377025213922	607.896145237248	829.043322636573	630.084411944165	670.457476357649	893.928781986369	574.035341690603	584.243896196854	886.075065250639	484.666675281452	588.133138565857	939.629853014976	786.004374951370	408.166755271753	902.612438256075	660.257994126287	328.751695731725	999.996864036971	601.019279544334	400.489475312985	1028.392771254225	528.582680961911	393.974280033037	1000.738184620457	454.512892194499	380.127687649409	918.150941931325	339.706490508787	318.772378076138	981.183207678683	225.711336094461	376.835766254750	851.191066747863	397.387626904374	594.638763595460	773.507912039989	298.636393486555	654.873291523430	805.742058905045	202.494880953146	589.082731503707	658.393697386950	43.752276898224	557.868474813058	829.731290665802	96.894920501188	595.987839814958	740.473083262098	36.875395878340	634.040519218799	949.076988125601	41.296410572510	626.450408284127	866.628631946522	57.113017360353	401.550640919030	944.296103677617	59.685462857657	325.241452849732	1022.053936735041	127.020406354044	353.686720960829	1152.395211458400	85.463200879322	330.927372554454	705.035461090413	1094.978847118146	260.389864450025	701.815567863020	834.566861929238	262.475228586404	927.486807213797	1100.828847128176	807.903819017467	1173.209382197060	1076.189562849569	752.312858052278	
58	40.185071428571	853.157528170731	963.899768832435	371.356714467468	655.672397232981	1011.606918585199	549.054632072591	823.137733024355	1434.798519031958	352.265041139830	941.944216642463	1359.988113079759	499.725371485176	881.573020722785	1437.482683035371	682.997764863836	846.194273843930	1495.004794644917	501.086375661925	889.538093387858	937.777207622387	643.281139482167	912.197798959294	732.481345976524	607.643550197860	825.664969908811	629.886171479108	670.459419477543	889.726098523802	573.222903803004	584.216297928392	880.949511598179	484.199422478890	588.028184175867	937.395122003301	785.253842119511	408.053447006117	900.549814855999	660.022656532718	327.870688978390	996.972256781527	600.246393652116	400.326011268628	1026.107146824740	529.786613437683	394.055128807258	1001.799595192237	456.151822124712	380.138370131484	925.779588592258	337.063683087611	317.968053148641	993.667775695343	226.546853349872	377.390525732413	845.900603708997	397.095255003732	594.607922998549	767.960908073218	298.597333813446	654.939614695486	799.667101599806	202.346354264711	589.090450368750	651.824322902972	43.821502739659	557.979158216561	823.149780551003	96.821877537143	595.920562519729	733.906755575159	36.884016706722	634.070346858562	942.494364463631	41.207395899962	626.455218254700	887.245327225579	52.454851625669	401.193761262765	966.137328395264	57.985398921344	326.100193160994	1039.970623721238	129.485403031128	355.260679019545	1172.790702448570	94.197281012518	335.119925477345	700.113940191250	1096.219153489565	261.981465870718	691.722602409092	835.988089356993	265.949090900271	936.034703662370	1101.782734934268	805.541554197896	1181.526052395639	1087.365432679387	747.005736797045	
